<svg id="Layer_1" data-name="Layer 1" xmlns="http://www.w3.org/2000/svg" viewBox="0 0 144 144"><defs><style>.cls-1{fill:#00803e;}</style></defs><title>Icon</title><path class="cls-1" d="M72.08,48.82a8.12,8.12,0,1,1-8.15,8.12,8.14,8.14,0,0,1,8.15-8.12m0-2.81A10.93,10.93,0,1,0,83,56.94,10.94,10.94,0,0,0,72.08,46Z"/><path class="cls-1" d="M83.47,72.66a4.92,4.92,0,0,1,4.92,4.9V95.63H55.8V77.56a4.92,4.92,0,0,1,4.92-4.9h1.71l7.24,12.51,2.43,4.19,2.42-4.19,7.25-12.51h1.7m0-2.81H80.15L72.1,83.76l-8-13.91H60.72A7.72,7.72,0,0,0,53,77.56V98.44H91.19V77.56a7.71,7.71,0,0,0-7.72-7.71Z"/><polygon class="cls-1" points="72.1 69.85 71.39 70.57 71.9 71.07 70.32 78.86 70.32 78.92 70.32 78.94 72.1 80.25 73.87 78.94 73.87 78.92 73.87 78.86 72.26 71.11 72.8 70.57 72.1 69.85 72.1 69.85"/><path class="cls-1" d="M124.51,86.71l-4.47.91,2.2,10.75L109.3,90.91a41.8,41.8,0,0,0,0-37.81l13-7.47L120,56.38l4.47.91,3-14.71.61-3-2.89-1L111,33.89l-1.44,4.32L120,41.68l-13,7.48A41.69,41.69,0,0,0,74.28,30.35v-15l8.21,7.27,3-3.41-11.23-10L72,7.2l-2.28,2-11.23,10,3,3.41,8.21-7.27V30.36a41.72,41.72,0,0,0-32.6,18.87h0L24,41.68l10.41-3.47L33,33.89,18.77,38.64h0l-2.88,1,.61,3,3,14.71L24,56.38l-2.2-10.75,13.08,7.55a41.79,41.79,0,0,0,0,37.65L21.76,98.37,24,87.62l-4.46-.91-3,14.71-.61,3,2.89,1L33,110.11l1.44-4.32-10.4-3.47L37.1,94.78a41.7,41.7,0,0,0,32.62,18.9v15l-8.21-7.27-3,3.41,11.23,10,2.28,2,2.28-2,11.23-10-3-3.41-8.21,7.27v-15A41.69,41.69,0,0,0,107,94.85L120,102.32l-10.41,3.47,1.44,4.32,14.24-4.75,2.89-1-.61-3Zm-19.17,1.91h0a36.74,36.74,0,0,1-2.29,3.94,37.18,37.18,0,0,1-28.77,16.57c-.73,0-1.46.06-2.2.06s-1.58,0-2.36-.07A37.17,37.17,0,0,1,41.07,92.49a35.86,35.86,0,0,1-2.28-3.95,37.09,37.09,0,0,1,0-33.07h0a37.66,37.66,0,0,1,2.28-3.94A37.17,37.17,0,0,1,69.72,34.93c.78-.06,1.57-.08,2.36-.08s1.47,0,2.2.07A37.15,37.15,0,0,1,103,51.45a35.14,35.14,0,0,1,2.29,3.94h0a37.09,37.09,0,0,1,0,33.23Z"/></svg>