<svg id="Layer_1" data-name="Layer 1" xmlns="http://www.w3.org/2000/svg" viewBox="0 0 144 144"><defs><style>.cls-1{fill:#00803e;}</style></defs><title>Icon</title><path class="cls-1" d="M75.38,133.42A61.45,61.45,0,0,1,14.69,81.57l-.11-.75-.71-.28a10.53,10.53,0,0,1-5.74-5.43,10,10,0,0,1-.87-3.24A9.73,9.73,0,0,1,7.2,70.8a10.38,10.38,0,0,1,.23-2.17,10.5,10.5,0,0,1,6.85-7.73l.71-.24.15-.74a61.19,61.19,0,0,1,7.33-19.15,61.58,61.58,0,0,1,18-19.3A61.07,61.07,0,0,1,74.58,10.58h1.59a61.24,61.24,0,0,1,43,18.37l.69.7.87-.47a10.55,10.55,0,0,1,5-1.25,10,10,0,0,1,1.75.15,10.45,10.45,0,0,1,4.86,18.39l-.76.63.39.9a61.3,61.3,0,0,1,4.76,20.42c.07,1.2.1,2.41.1,3.58s0,2.38-.1,3.58A61.45,61.45,0,0,1,75.38,133.42ZM60.55,126.8a57.37,57.37,0,0,0,29.66,0l.17,0a56.81,56.81,0,0,0,41.62-51l.09-1.4h-22.2l-.34.8a10.42,10.42,0,0,1-9.62,6.36,10.45,10.45,0,0,1-9.62-6.36l-.34-.8H27.51l-.35.77a10.41,10.41,0,0,1-6.66,5.74l-1.15.32.22,1.18a56.83,56.83,0,0,0,40.81,44.4ZM99.93,63.46a7.62,7.62,0,0,0-6.86,4.32,7.68,7.68,0,0,0-.74,3.28,7.2,7.2,0,0,0,.09,1.14,7.52,7.52,0,0,0,2.34,4.42l.45.39a7.59,7.59,0,0,0,8.84.42,6.69,6.69,0,0,0,1-.82,7.58,7.58,0,0,0,2.34-4.41,8.74,8.74,0,0,0,.08-1.14,7.57,7.57,0,0,0-.74-3.28A7.69,7.69,0,0,0,104,64.62,7.58,7.58,0,0,0,99.93,63.46ZM17.65,63.2a7.61,7.61,0,0,0-7,4.64,7.46,7.46,0,0,0-.6,3,7.75,7.75,0,0,0,.14,1.45,7.51,7.51,0,0,0,1.47,3.22,7.86,7.86,0,0,0,1.18,1.2,7.59,7.59,0,0,0,4.81,1.72,7.36,7.36,0,0,0,3-.62,7.24,7.24,0,0,0,1.81-1.1,7.6,7.6,0,0,0,2.64-4.42,7,7,0,0,0,.14-1.45,7.6,7.6,0,0,0-7.59-7.6ZM115.79,44a119.32,119.32,0,0,1-14.65,3l-1.34.2.24,1.34c.66,3.63,1.17,7.41,1.51,11.23l.08.93.9.23a10.4,10.4,0,0,1,7.56,7.71l.24,1h21.76L132,68.27a56.24,56.24,0,0,0-4.45-18.67l-.36-.84-.91.05-.58,0a10.47,10.47,0,0,1-8.48-4.36l-.54-.75ZM26.92,42.43A56,56,0,0,0,20,59.33l-.26,1.17,1.13.37a10.48,10.48,0,0,1,7,7.75l.22,1H89.52l.24-1a10.43,10.43,0,0,1,6.3-7.3L97,61l-.09-1c-.33-3.76-.84-7.47-1.5-11l-.2-1.07H94a185,185,0,0,1-18.57.92c-4,0-7.93-.13-11.76-.37l-.94-.06-.36.87a10.46,10.46,0,0,1-9.65,6.46A10.26,10.26,0,0,1,48.75,55a10.44,10.44,0,0,1-6.44-8.33l-.12-.92-.91-.19A92.6,92.6,0,0,1,28.5,41.89l-1-.38ZM47.74,51.1l.56.39a7.56,7.56,0,0,0,9-.18,7.11,7.11,0,0,0,1.22-1.17,7.58,7.58,0,0,0,.86-8.44l-.21-.38a7.54,7.54,0,0,0-6.48-3.64,7.33,7.33,0,0,0-1.41.14,7.4,7.4,0,0,0-3.44,1.62h0l-.39.37a7.5,7.5,0,0,0-2.34,5.47,7.59,7.59,0,0,0,.71,3.21,7.85,7.85,0,0,0,2,2.57Zm74.31-6,.83.33a7.6,7.6,0,0,0,10.42-6.85v-.2a7.63,7.63,0,0,0-5-7.13,7.51,7.51,0,0,0-2.63-.47A7.59,7.59,0,0,0,118.49,36l-.07.2h0v.05a1.77,1.77,0,0,0-.08.31,7,7,0,0,0-.22,1.73v.06a7.54,7.54,0,0,0,3,6.07,7.43,7.43,0,0,0,.91.59ZM75.38,15.25c-4.84,0-10.2,5.54-14.35,14.83-.78,1.75-1.53,3.65-2.21,5.63l-.3.87.72.58a10.52,10.52,0,0,1,3.58,5.64l.23,1,1,.06c3.74.22,7.56.34,11.37.34,5.86,0,11.66-.27,17.23-.8l1.54-.15-.4-1.5a75.94,75.94,0,0,0-4-11.62C85.58,20.79,80.21,15.25,75.38,15.25Zm13.59,4c4,5.44,7.25,13.12,9.54,22.19l.29,1.15,1.17-.17a114.05,114.05,0,0,0,14.33-2.93l1-.26v-1a10.5,10.5,0,0,1,1-4.39l.39-.82-.62-.66-.5-.5,0,0A56.61,56.61,0,0,0,90.38,17.24l-3.6-1ZM60.38,17.24A56.79,56.79,0,0,0,31.43,36.1l-1.2,1.46,1.79.61c.78.27,1.61.54,2.52.81,2.35.71,4.88,1.36,7.53,1.93l1,.21.47-.86a10.48,10.48,0,0,1,9.17-5.43l.5,0,1,0,.32-.94a56.85,56.85,0,0,1,7.31-14.67l2.19-3Zm42.81,72.92a7.52,7.52,0,1,0,7.53,7.52A7.53,7.53,0,0,0,103.19,90.16Zm0,12.94a5.42,5.42,0,1,1,5.44-5.42A5.44,5.44,0,0,1,103.19,103.1Zm.12,4.34.38-.38-.49-.49-.49.49.35.35L102,112.78v0l1.23.9,1.21-.9v0Zm7.72-.87h-2.29l-5.54,9.58-5.54-9.58h-1q0,.33,0,.66V124.6c.7-.28,1.4-.58,2.09-.9V112.76l2.57,4.44,1.81,3.13L105,117.2l4.94-8.53H111a3.22,3.22,0,0,1,3.22,3.21v1.46c.42-.4.84-.8,1.25-1.21s.55-.55.81-.83A5.3,5.3,0,0,0,111,106.57ZM75.38,79.3A10.91,10.91,0,1,0,86.3,90.21,10.92,10.92,0,0,0,75.38,79.3Zm0,19.51A8.61,8.61,0,1,1,84,90.21,8.63,8.63,0,0,1,75.38,98.81Zm.18,5.54.54-.54-.7-.71-.71.71.51.5-1.58,7.78v.08l1.78,1.31,1.76-1.31v-.08Zm11.18-1.25H83.43L75.4,117l-8-13.88H64a7.7,7.7,0,0,0-7.71,7.7v14.68c.76.27,1.53.52,2.3.76V110.8A5.42,5.42,0,0,1,64,105.39h2l7.37,12.74,2,3.43,2-3.43,7.37-12.74h2a5.42,5.42,0,0,1,5.42,5.41v15.43c.77-.24,1.54-.49,2.3-.76V110.8A7.71,7.71,0,0,0,86.74,103.1ZM47.57,90.16a7.52,7.52,0,1,0,7.54,7.52A7.53,7.53,0,0,0,47.57,90.16Zm0,12.94A5.42,5.42,0,1,1,53,97.68,5.44,5.44,0,0,1,47.57,103.1Zm.13,4.34.37-.38-.48-.49-.49.49.35.35-1.09,5.37v0l1.23.9,1.21-.9v0Zm5.43-.87-5.54,9.58-5.54-9.58H39.76a5.32,5.32,0,0,0-5.29,4.76l.78.8c.42.42.85.84,1.29,1.24v-1.49a3.22,3.22,0,0,1,3.22-3.21h1.08l4.93,8.53,1.81,3.13,1.82-3.13L52,112.77v10.94c.69.32,1.4.62,2.1.91V107.23q0-.33,0-.66Z"/></svg>